<svg width="18" height="18" viewBox="0 0 18 18" fill="none" xmlns="http://www.w3.org/2000/svg">
<mask id="path-1-inside-1_240_12343" fill="white">
<path fill-rule="evenodd" clip-rule="evenodd" d="M18 9C18 13.9706 13.9706 18 9 18C4.02944 18 0 13.9706 0 9C0 4.02944 4.02944 0 9 0C13.9706 0 18 4.02944 18 9ZM10 7V14H8V7H10ZM9 6C9.55229 6 10 5.55228 10 5C10 4.44772 9.55229 4 9 4C8.44771 4 8 4.44772 8 5C8 5.55228 8.44771 6 9 6Z"/>
</mask>
<path fill-rule="evenodd" clip-rule="evenodd" d="M18 9C18 13.9706 13.9706 18 9 18C4.02944 18 0 13.9706 0 9C0 4.02944 4.02944 0 9 0C13.9706 0 18 4.02944 18 9ZM10 7V14H8V7H10ZM9 6C9.55229 6 10 5.55228 10 5C10 4.44772 9.55229 4 9 4C8.44771 4 8 4.44772 8 5C8 5.55228 8.44771 6 9 6Z" fill="#9F0000"/>
<path d="M10 14V16H12V14H10ZM10 7H12V5H10V7ZM8 14H6V16H8V14ZM8 7V5H6V7H8ZM9 20C15.0751 20 20 15.0751 20 9H16C16 12.866 12.866 16 9 16V20ZM-2 9C-2 15.0751 2.92487 20 9 20V16C5.13401 16 2 12.866 2 9H-2ZM9 -2C2.92487 -2 -2 2.92487 -2 9H2C2 5.13401 5.13401 2 9 2V-2ZM20 9C20 2.92487 15.0751 -2 9 -2V2C12.866 2 16 5.13401 16 9H20ZM12 14V7H8V14H12ZM8 16H10V12H8V16ZM6 7V14H10V7H6ZM10 5H8V9H10V5ZM8 5C8 4.44772 8.44771 4 9 4V8C10.6569 8 12 6.65685 12 5H8ZM9 6C8.44771 6 8 5.55228 8 5H12C12 3.34315 10.6569 2 9 2V6ZM10 5C10 5.55228 9.55229 6 9 6V2C7.34314 2 6 3.34315 6 5H10ZM9 4C9.55229 4 10 4.44772 10 5H6C6 6.65685 7.34314 8 9 8V4Z" fill="#9F0000" mask="url(#path-1-inside-1_240_12343)"/>
</svg>
