<svg width="18" height="18" viewBox="0 0 18 18" fill="none" xmlns="http://www.w3.org/2000/svg">
<path fill-rule="evenodd" clip-rule="evenodd" d="M9 18C13.9706 18 18 13.9706 18 9C18 4.02944 13.9706 0 9 0C4.02944 0 0 4.02944 0 9C0 13.9706 4.02944 18 9 18ZM6.68615 13.2938C6.73386 13.3415 6.78529 13.3833 6.83949 13.4191C7.02919 13.5443 7.25293 13.5965 7.471 13.5756C7.68907 13.5548 7.90146 13.4608 8.06846 13.2938L14.2888 7.07349C14.6705 6.69178 14.6705 6.0729 14.2888 5.69119C13.9071 5.30948 13.2882 5.30948 12.9065 5.69119L7.3773 11.2204L5.995 9.83808C5.61329 9.45637 4.99441 9.45637 4.6127 9.83808C4.23099 10.2198 4.23099 10.8387 4.6127 11.2204L6.68615 13.2938Z" fill="#33B629"/>
</svg>
